<svg width="32" height="32" viewBox="0 0 32 32" fill="none" xmlns="http://www.w3.org/2000/svg">
<path fill-rule="evenodd" clip-rule="evenodd" d="M29.5335 17.3827C29.9211 16.9947 30.272 16.5671 30.5793 16.1066C30.8839 15.6504 31.1458 15.1619 31.3588 14.6472C31.5689 14.1394 31.7308 13.6111 31.8386 13.0687C31.9444 12.5363 32 11.9883 32 11.4305C32 10.2923 31.7724 9.20394 31.3602 8.20866C30.9313 7.17331 30.3055 6.24406 29.5308 5.4693C28.7562 4.69473 27.8269 4.06877 26.7915 3.63988C25.7961 3.22763 24.7077 3 23.5696 3C23.2754 3 22.9754 3.01665 22.6715 3.04918C22.3658 3.0818 22.0689 3.12977 21.7819 3.19175C21.5039 3.25183 21.2178 3.33107 20.9255 3.42841C20.6313 3.52627 20.3517 3.63571 20.0876 3.75565L20.088 3.75653L20.0154 3.78915C19.4751 4.03693 19.0015 4.30174 18.1684 4.51481C17.5831 4.66449 16.9058 4.77092 16.0173 4.79496C15.799 4.79496 15.2177 4.76304 14.6619 4.68642C14.0521 4.60243 13.4823 4.43285 12.9112 4.20565C12.558 4.0651 12.2426 3.91393 11.9062 3.76024C11.827 3.72076 11.7428 3.68534 11.6621 3.64871L11.6599 3.64642C11.6141 3.62582 11.5702 3.60661 11.5341 3.59224L11.5319 3.58986C11.3068 3.50079 11.057 3.41633 10.7831 3.33744C10.5227 3.26246 10.2634 3.20005 10.0065 3.15127C9.75069 3.10279 9.48754 3.06528 9.21855 3.03966C8.9434 3.01345 8.68008 3.00004 8.43046 3.00004C7.29234 3.00004 6.20386 3.22767 5.20858 3.63984C4.17304 4.06887 3.2439 4.69477 2.4693 5.46934C1.69473 6.24392 1.06885 7.1731 0.639824 8.20862C0.227628 9.2039 0 10.2924 0 11.4305C0 11.9681 0.0524382 12.4989 0.152298 13.0177C0.253386 13.5421 0.405439 14.0548 0.603254 14.5501C0.805001 15.0555 1.05077 15.5329 1.33505 15.9766C1.62378 16.4272 1.95506 16.8489 2.32262 17.2357L11.1632 26.0357C11.8776 26.6889 12.832 26.5716 13.3696 26.0366L14.5311 24.9132C18.2988 21.1501 22.0735 17.3938 25.8364 13.626L25.8576 13.5974C25.984 13.4633 26.1024 13.314 26.2096 13.1513C26.3221 12.981 26.4179 12.8033 26.4937 12.6209C26.5696 12.4386 26.6301 12.2425 26.6724 12.0344C26.7135 11.8312 26.7354 11.6289 26.7354 11.4305C26.7354 11.0055 26.6496 10.5971 26.4942 10.222C26.3321 9.83072 26.0973 9.48124 25.8081 9.19196C25.5188 8.9027 25.1694 8.66787 24.7781 8.50584C24.403 8.35056 23.9946 8.2647 23.5696 8.2647C22.9737 8.2647 22.4923 8.4128 22.0143 8.65884C21.5021 8.93714 20.7499 9.21748 20.127 9.41447C18.8041 9.83297 17.4844 10.0465 16.0177 10.0465C15.3066 10.0465 14.0307 9.96058 12.7998 9.66804C11.6996 9.40651 10.5755 8.92459 9.94423 8.64154C9.65612 8.3997 8.9536 8.26468 8.43049 8.26468C8.00496 8.26468 7.59653 8.35086 7.2223 8.50679C6.83623 8.66768 6.48716 8.90434 6.1937 9.19806C5.90225 9.48988 5.66752 9.83754 5.50775 10.2226C5.35246 10.5971 5.26663 11.0052 5.26663 11.4305C5.26663 11.6295 5.28669 11.83 5.32519 12.0288C5.3629 12.2234 5.42077 12.4179 5.49696 12.6087C5.57493 12.8038 5.66987 12.9875 5.77991 13.1561V13.1584C5.88976 13.3266 6.01851 13.4855 6.16459 13.632L8.8297 16.2876L10.5225 17.9744C10.9042 18.3547 10.7115 18.1419 11.1087 18.5389C11.3359 18.8078 11.7329 19.0088 12.2001 19.0056C12.5477 19.0032 12.9514 18.8974 13.2606 18.5703C13.4941 18.4016 13.6947 17.9725 13.7093 17.5162C13.7213 17.1417 13.6122 16.7521 13.2625 16.4445L12.348 15.5313C11.4083 14.5872 9.98 13.1565 9.04023 12.2125C8.93799 12.1098 8.44697 11.6203 8.34463 11.5175C8.29903 11.473 8.28509 11.3846 8.3277 11.3305C8.35876 11.2912 8.43046 11.2632 8.52351 11.2969C8.69229 11.3812 9.0069 11.5292 9.27994 11.6527C10.1504 12.0463 10.9942 12.307 11.9167 12.5601C12.3175 12.6684 13.0744 12.8082 13.5361 12.8834C13.6081 12.8992 14.1661 12.9764 14.7322 13.0171C15.3174 13.0593 15.9117 13.0651 16.007 13.0651C18.6661 13.0651 21.1366 12.4595 23.5017 11.2911C23.5738 11.2656 23.6389 11.2863 23.6769 11.3259C23.7194 11.3702 23.728 11.4385 23.6746 11.4923C23.6448 11.528 23.6048 11.5497 23.5025 11.6625L12.2841 22.8504C9.69793 20.2684 7.11069 17.727 4.52545 15.1402C4.29002 14.8926 4.07748 14.6222 3.89177 14.3333C3.7064 14.0449 3.54964 13.7428 3.42513 13.431C3.30246 13.1238 3.20714 12.7983 3.14254 12.4579C3.08054 12.1314 3.04811 11.7881 3.04811 11.4305C3.04811 10.6976 3.19261 10.0018 3.45426 9.36998C3.72536 8.71533 4.12583 8.12313 4.62447 7.62449C5.12313 7.12585 5.71533 6.7254 6.36996 6.45429C7.0018 6.19265 7.69774 6.04813 8.43049 6.04813C8.62347 6.04813 8.79638 6.0554 8.9493 6.06934C9.11345 6.08433 9.27969 6.1081 9.44708 6.13994C9.61279 6.17133 9.77414 6.21017 9.93047 6.25586C10.079 6.29916 10.2402 6.35553 10.4126 6.42376L10.5069 6.46094L10.6357 6.51856L10.6351 6.51995C10.7217 6.56031 10.809 6.59976 10.8971 6.63832L11.0724 6.71865L11.0754 6.71472C11.3476 6.82887 11.6268 6.93471 11.9126 7.0316C12.1664 7.15459 12.4742 7.26352 12.8098 7.35794C13.2179 7.47281 13.6683 7.5854 14.1109 7.65711C14.8272 7.77329 15.5255 7.81362 16.007 7.81362C17.0449 7.81362 18.0868 7.62738 18.7252 7.48859C19.1587 7.37503 19.6061 7.26094 20.022 7.08883C20.3648 6.97424 21.025 6.65656 21.3705 6.48498C21.9789 6.20772 22.7388 6.01236 23.5837 6.01236C24.9642 6.01236 26.4266 6.61703 27.3981 7.58845C28.1732 8.36356 28.7088 9.35139 28.9151 10.5286C29.0332 11.2035 29.0094 12.0056 28.8263 12.7324C28.6674 13.3629 28.3879 13.9545 28.0593 14.4457C27.8627 14.7395 27.6302 14.9875 27.379 15.239C22.6947 19.9191 19.3535 23.2331 14.8729 27.7097C14.1271 28.4178 14.6049 29.5606 14.8791 29.7382C15.6038 30.5051 16.6773 30.2174 17.1186 29.7296L29.5335 17.3828V17.3827Z" fill="url(#paint0_linear_545_421)"/>
<defs>
<linearGradient id="paint0_linear_545_421" x1="30.5803" y1="6.74891" x2="10.9379" y2="25.8076" gradientUnits="userSpaceOnUse">
<stop stop-color="#9931CC"/>
<stop offset="0.458824" stop-color="#4D97A6"/>
<stop offset="1" stop-color="#01FE7F"/>
</linearGradient>
</defs>
</svg>
